<?xml version="1.0" encoding="UTF-8"?>
<svg width="1275px" height="241px" viewBox="0 0 1275 241" version="1.1" xmlns="http://www.w3.org/2000/svg" xmlns:xlink="http://www.w3.org/1999/xlink">
    <!-- Generator: Sketch 49.3 (51167) - http://www.bohemiancoding.com/sketch -->
    <title>Horizontal Transparent Red + Blue</title>
    <desc>Created with Sketch.</desc>
    <defs></defs>
    <g id="Horizontal-Transparent-Red-+-Blue" stroke="none" stroke-width="1" fill="none" fill-rule="evenodd">
        <g id="Vote-Icon" transform="translate(41.000000, 32.000000)">
            <g id="Checkmark" transform="translate(84.000000, 94.000000)" stroke="#CD474B">
                <ellipse id="Check-Circle" stroke-width="8" cx="20.6674842" cy="20.5" rx="20.6674842" ry="20.5"></ellipse>
                <path d="M13.326048,11.8179814 C13.9308595,23.4094028 15.5359577,28.3940508 18.1413426,26.7719254 C20.7467274,25.1498 32.3591659,19.8190079 52.9786581,10.7795489" id="Check" stroke-width="10"></path>
            </g>
            <g id="Clipboard" transform="translate(0.000000, 40.000000)">
                <path d="M129.415238,19.7527974 C136.730514,19.7527974 147.703428,19.7527974 162.33398,19.7527974 C163.446274,19.7527974 164.347966,20.6516069 164.347966,21.7603446 L164.347966,91.9189682 L51.892418,158.139209 C50.9347462,158.70314 48.8540683,156.769935 48.8540683,156.410734 L48.8540683,21.7603446 C48.8540683,20.6516069 49.7557605,19.7527974 50.8680543,19.7527974 L86.8301231,19.7527974" stroke="#CD474B" stroke-width="11" transform="translate(106.601017, 88.997191) rotate(30.000000) translate(-106.601017, -88.997191) "></path>
                <path d="M151.109838,41.076165 C155.259321,38.7308469 159.303886,36.653683 163.243533,34.8446734 C165.456462,34.8446734 168.152628,34.6216126 171.332029,34.175491 L161.288425,46.9390675 L151.109838,41.076165 Z" id="Handle-partial" fill="#CD474B" transform="translate(161.220933, 40.557279) rotate(-1.000000) translate(-161.220933, -40.557279) "></path>
                <rect id="Bottom" fill="#CD474B" x="0" y="112.755975" width="192" height="14.0528302" rx="7.02641509"></rect>
            </g>
            <g id="Hand" transform="translate(111.000000, 0.000000)" fill="#CD474B">
                <path d="M122.462717,0.0335586887 C134.15413,9.69510724 139.23831,22.5642468 137.715257,38.6409772 C117.631095,42.3732318 123.285603,42.0022848 109.435331,46.480026 C100.443926,55.2619948 98.2138194,66.6676018 51.0250357,66.6676018 C30.0539066,79.3718697 25.935053,85.0086753 17.8774412,87.6960803 C9.8198294,90.3834853 -5.09710611,89.1319669 8.76169545,72.3692569 C12.5663875,69.3477207 19.3639031,65.3959751 28.306843,57.0777711 C38.4045361,50.5447899 34.4332817,46.480026 23.8669001,52.6201206 C20.4929251,54.710585 16.4455304,57.4667349 11.7247159,60.8885703 L0.264120401,54.4110671 C9.5686408,41.4581581 19.7218758,29.6832468 30.7238253,19.0863332 C34.8511533,17.6277901 56.5781275,15.0739116 95.9047478,11.4246979 L122.462717,0.0335586887 Z M7.01975796,85.1040672 C8.52300129,86.9751385 11.6950197,86.7931241 16.5358132,84.558024 L10.3321792,75.9341693 C6.62065505,80.1763632 5.51651462,83.2329959 7.01975796,85.1040672 Z M123.813814,33.8997695 L102.111137,40.8696158 C96.4961866,50.2069043 87.2196049,55.3202621 74.2813921,56.2096892 L74.0871626,61.4979295 C90.2416964,59.3928533 100.678368,53.7980162 105.397176,44.7134182 L125.074631,39.16246 L123.813814,33.8997695 Z" id="Combined-Shape"></path>
            </g>
        </g>
        <text id="GoVoteTusc" font-family="Avenir-Heavy, Avenir" font-size="153" font-weight="600" letter-spacing="4.80857038" fill="#12315D">
            <tspan x="320" y="176">GoVoteTusc</tspan>
        </text>
    </g>
</svg>